<svg xmlns="http://www.w3.org/2000/svg" xmlns:xlink="http://www.w3.org/1999/xlink" width="745" height="744" contentScriptType="application/ecmascript" contentStyleType="text/css" style="width:745px;height:744px" preserveAspectRatio="none" version="1.1" viewBox="0 0 745 744" zoomAndPan="magnify"><defs><filter id="f1hsv8thv8xcyq" width="300%" height="300%" x="-1" y="-1"><feGaussianBlur result="blurOut" stdDeviation="2"/><feColorMatrix in="blurOut" result="blurOut2" type="matrix" values="0 0 0 0 0 0 0 0 0 0 0 0 0 0 0 0 0 0 .4 0"/><feOffset dx="4" dy="4" in="blurOut2" result="blurOut3"/><feBlend in="SourceGraphic" in2="blurOut3" mode="normal"/></filter></defs><g><text x="268.5" y="23.006" fill="#000" font-family="sans-serif" font-size="14" font-weight="bold" lengthAdjust="spacingAndGlyphs" textLength="199">Wallet API Call via JSON-RPC</text><line style="stroke:#a80036;stroke-width:1;stroke-dasharray:5,5" x1="29" x2="29" y1="117.6" y2="657"/><line style="stroke:#a80036;stroke-width:1;stroke-dasharray:5,5" x1="254.5" x2="254.5" y1="117.6" y2="657"/><line style="stroke:#a80036;stroke-width:1;stroke-dasharray:5,5" x1="418.5" x2="418.5" y1="117.6" y2="657"/><line style="stroke:#a80036;stroke-width:1;stroke-dasharray:5,5" x1="583" x2="583" y1="117.6" y2="657"/><text x="8" y="113.806" fill="#000" font-family="sans-serif" font-size="14" lengthAdjust="spacingAndGlyphs" textLength="36">Client</text><ellipse cx="29" cy="43.8" fill="#FEFECE" filter="url(#f1hsv8thv8xcyq)" rx="8" ry="8" style="stroke:#a80036;stroke-width:2"/><path fill="none" d="M29,51.7999 L29,78.7999 M16,59.7999 L42,59.7999 M29,78.7999 L16,93.7999 M29,78.7999 L42,93.7999" filter="url(#f1hsv8thv8xcyq)" style="stroke:#a80036;stroke-width:2"/><text x="8" y="669.006" fill="#000" font-family="sans-serif" font-size="14" lengthAdjust="spacingAndGlyphs" textLength="36">Client</text><ellipse cx="29" cy="682.8" fill="#FEFECE" filter="url(#f1hsv8thv8xcyq)" rx="8" ry="8" style="stroke:#a80036;stroke-width:2"/><path fill="none" d="M29,690.8 L29,717.8 M16,698.8 L42,698.8 M29,717.8 L16,732.8 M29,717.8 L42,732.8" filter="url(#f1hsv8thv8xcyq)" style="stroke:#a80036;stroke-width:2"/><rect style="stroke:#a80036;stroke-width:1.5" width="167" height="30.8" x="169.5" y="81.8" fill="#FEFECE" filter="url(#f1hsv8thv8xcyq)"/><text x="176.5" y="101.806" fill="#000" font-family="sans-serif" font-size="14" lengthAdjust="spacingAndGlyphs" textLength="153">JSON-RPC API (if used)</text><rect style="stroke:#a80036;stroke-width:1.5" width="167" height="30.8" x="169.5" y="656" fill="#FEFECE" filter="url(#f1hsv8thv8xcyq)"/><text x="176.5" y="676.006" fill="#000" font-family="sans-serif" font-size="14" lengthAdjust="spacingAndGlyphs" textLength="153">JSON-RPC API (if used)</text><rect style="stroke:#a80036;stroke-width:1.5" width="121" height="30.8" x="356.5" y="81.8" fill="#FEFECE" filter="url(#f1hsv8thv8xcyq)"/><text x="363.5" y="101.806" fill="#000" font-family="sans-serif" font-size="14" lengthAdjust="spacingAndGlyphs" textLength="107">Internal Rust API</text><rect style="stroke:#a80036;stroke-width:1.5" width="121" height="30.8" x="356.5" y="656" fill="#FEFECE" filter="url(#f1hsv8thv8xcyq)"/><text x="363.5" y="676.006" fill="#000" font-family="sans-serif" font-size="14" lengthAdjust="spacingAndGlyphs" textLength="107">Internal Rust API</text><rect style="stroke:#a80036;stroke-width:1.5" width="112" height="30.8" x="525" y="81.8" fill="#FEFECE" filter="url(#f1hsv8thv8xcyq)"/><text x="532" y="101.806" fill="#000" font-family="sans-serif" font-size="14" lengthAdjust="spacingAndGlyphs" textLength="98">Wallet Backend</text><rect style="stroke:#a80036;stroke-width:1.5" width="112" height="30.8" x="525" y="656" fill="#FEFECE" filter="url(#f1hsv8thv8xcyq)"/><text x="532" y="676.006" fill="#000" font-family="sans-serif" font-size="14" lengthAdjust="spacingAndGlyphs" textLength="98">Wallet Backend</text><rect style="stroke:#eee;stroke-width:1" width="730" height="3" x="3" y="148.4" fill="#EEE" filter="url(#f1hsv8thv8xcyq)"/><line style="stroke:#000;stroke-width:1" x1="3" x2="733" y1="148.4" y2="148.4"/><line style="stroke:#000;stroke-width:1" x1="3" x2="733" y1="151.4" y2="151.4"/><rect style="stroke:#000;stroke-width:2" width="68" height="23.6" x="334" y="137.6" fill="#EEE" filter="url(#f1hsv8thv8xcyq)"/><text x="340" y="153.677" fill="#000" font-family="sans-serif" font-size="13" font-weight="bold" lengthAdjust="spacingAndGlyphs" textLength="50">API Call</text><line style="stroke:#a80036;stroke-width:1" x1="29" x2="71" y1="192.8" y2="192.8"/><line style="stroke:#a80036;stroke-width:1" x1="71" x2="71" y1="192.8" y2="205.8"/><line style="stroke:#a80036;stroke-width:1" x1="30" x2="71" y1="205.8" y2="205.8"/><polygon fill="#A80036" points="40 201.8 30 205.8 40 209.8 36 205.8" style="stroke:#a80036;stroke-width:1"/><text x="36" y="187.277" fill="#000" font-family="sans-serif" font-size="13" lengthAdjust="spacingAndGlyphs" textLength="116">Supply stored token</text><text x="156" y="187.277" fill="#000" font-family="sans-serif" font-size="13" font-weight="bold" lengthAdjust="spacingAndGlyphs" textLength="4">t</text><text x="164" y="187.277" fill="#000" font-family="sans-serif" font-size="13" lengthAdjust="spacingAndGlyphs" textLength="10">in</text><text x="178" y="187.277" fill="#000" font-family="sans-serif" font-size="13" font-weight="bold" lengthAdjust="spacingAndGlyphs" textLength="20">req</text><text x="202" y="187.277" fill="#000" font-family="sans-serif" font-size="13" lengthAdjust="spacingAndGlyphs" textLength="14">as</text><text x="220" y="187.277" fill="#000" font-family="sans-serif" font-size="13" font-weight="bold" lengthAdjust="spacingAndGlyphs" textLength="28">req.t</text><line style="stroke:#a80036;stroke-width:1" x1="29" x2="71" y1="235.4" y2="235.4"/><line style="stroke:#a80036;stroke-width:1" x1="71" x2="71" y1="235.4" y2="248.4"/><line style="stroke:#a80036;stroke-width:1" x1="30" x2="71" y1="248.4" y2="248.4"/><polygon fill="#A80036" points="40 244.4 30 248.4 40 252.4 36 248.4" style="stroke:#a80036;stroke-width:1"/><text x="36" y="229.877" fill="#000" font-family="sans-serif" font-size="13" lengthAdjust="spacingAndGlyphs" textLength="25">enc(</text><text x="61" y="229.877" fill="#000" font-family="sans-serif" font-size="13" font-weight="bold" lengthAdjust="spacingAndGlyphs" textLength="20">req</text><text x="81" y="229.877" fill="#000" font-family="sans-serif" font-size="13" lengthAdjust="spacingAndGlyphs" textLength="4">,</text><text x="89" y="229.877" fill="#000" font-family="sans-serif" font-size="13" font-weight="bold" lengthAdjust="spacingAndGlyphs" textLength="7">s</text><text x="96" y="229.877" fill="#000" font-family="sans-serif" font-size="13" lengthAdjust="spacingAndGlyphs" textLength="20">) -&gt;</text><text x="120" y="229.877" fill="#000" font-family="sans-serif" font-size="13" font-weight="bold" lengthAdjust="spacingAndGlyphs" textLength="44">reqEnc</text><polygon fill="#A80036" points="243 274 253 278 243 282 247 278" style="stroke:#a80036;stroke-width:1"/><line style="stroke:#a80036;stroke-width:1" x1="29" x2="249" y1="278" y2="278"/><text x="36" y="272.477" fill="#000" font-family="sans-serif" font-size="13" lengthAdjust="spacingAndGlyphs" textLength="101">call_api_function(</text><text x="137" y="272.477" fill="#000" font-family="sans-serif" font-size="13" font-weight="bold" lengthAdjust="spacingAndGlyphs" textLength="44">reqEnc</text><text x="181" y="272.477" fill="#000" font-family="sans-serif" font-size="13" lengthAdjust="spacingAndGlyphs" textLength="4">)</text><line style="stroke:#a80036;stroke-width:1" x1="255" x2="297" y1="307.6" y2="307.6"/><line style="stroke:#a80036;stroke-width:1" x1="297" x2="297" y1="307.6" y2="320.6"/><line style="stroke:#a80036;stroke-width:1" x1="256" x2="297" y1="320.6" y2="320.6"/><polygon fill="#A80036" points="266 316.6 256 320.6 266 324.6 262 320.6" style="stroke:#a80036;stroke-width:1"/><text x="262" y="302.077" fill="#000" font-family="sans-serif" font-size="13" lengthAdjust="spacingAndGlyphs" textLength="25">dec(</text><text x="287" y="302.077" fill="#000" font-family="sans-serif" font-size="13" font-weight="bold" lengthAdjust="spacingAndGlyphs" textLength="44">reqEnc</text><text x="331" y="302.077" fill="#000" font-family="sans-serif" font-size="13" lengthAdjust="spacingAndGlyphs" textLength="4">,</text><text x="339" y="302.077" fill="#000" font-family="sans-serif" font-size="13" font-weight="bold" lengthAdjust="spacingAndGlyphs" textLength="7">s</text><text x="346" y="302.077" fill="#000" font-family="sans-serif" font-size="13" lengthAdjust="spacingAndGlyphs" textLength="20">) -&gt;</text><text x="370" y="302.077" fill="#000" font-family="sans-serif" font-size="13" font-weight="bold" lengthAdjust="spacingAndGlyphs" textLength="20">req</text><polygon fill="#A80036" points="407 346.2 417 350.2 407 354.2 411 350.2" style="stroke:#a80036;stroke-width:1"/><line style="stroke:#a80036;stroke-width:1" x1="255" x2="413" y1="350.2" y2="350.2"/><text x="262" y="344.677" fill="#000" font-family="sans-serif" font-size="13" lengthAdjust="spacingAndGlyphs" textLength="101">call_api_function(</text><text x="363" y="344.677" fill="#000" font-family="sans-serif" font-size="13" font-weight="bold" lengthAdjust="spacingAndGlyphs" textLength="20">req</text><text x="383" y="344.677" fill="#000" font-family="sans-serif" font-size="13" lengthAdjust="spacingAndGlyphs" textLength="4">)</text><polygon fill="#A80036" points="571 375.8 581 379.8 571 383.8 575 379.8" style="stroke:#a80036;stroke-width:1"/><line style="stroke:#a80036;stroke-width:1" x1="419" x2="577" y1="379.8" y2="379.8"/><text x="426" y="374.277" fill="#000" font-family="sans-serif" font-size="13" lengthAdjust="spacingAndGlyphs" textLength="82">retrieve_seed(</text><text x="508" y="374.277" fill="#000" font-family="sans-serif" font-size="13" font-weight="bold" lengthAdjust="spacingAndGlyphs" textLength="28">req.t</text><text x="540" y="374.277" fill="#000" font-family="sans-serif" font-size="13" lengthAdjust="spacingAndGlyphs" textLength="14">as</text><text x="558" y="374.277" fill="#000" font-family="sans-serif" font-size="13" font-weight="bold" lengthAdjust="spacingAndGlyphs" textLength="4">t</text><text x="562" y="374.277" fill="#000" font-family="sans-serif" font-size="13" lengthAdjust="spacingAndGlyphs" textLength="4">)</text><line style="stroke:#a80036;stroke-width:1" x1="583" x2="625" y1="409.4" y2="409.4"/><line style="stroke:#a80036;stroke-width:1" x1="625" x2="625" y1="409.4" y2="422.4"/><line style="stroke:#a80036;stroke-width:1" x1="584" x2="625" y1="422.4" y2="422.4"/><polygon fill="#A80036" points="594 418.4 584 422.4 594 426.4 590 422.4" style="stroke:#a80036;stroke-width:1"/><text x="590" y="403.877" fill="#000" font-family="sans-serif" font-size="13" lengthAdjust="spacingAndGlyphs" textLength="28">calc(</text><text x="618" y="403.877" fill="#000" font-family="sans-serif" font-size="13" font-weight="bold" lengthAdjust="spacingAndGlyphs" textLength="4">t</text><text x="626" y="403.877" fill="#000" font-family="sans-serif" font-size="13" lengthAdjust="spacingAndGlyphs" textLength="6">^</text><text x="636" y="403.877" fill="#000" font-family="sans-serif" font-size="13" font-weight="bold" lengthAdjust="spacingAndGlyphs" textLength="37">seedT</text><text x="673" y="403.877" fill="#000" font-family="sans-serif" font-size="13" lengthAdjust="spacingAndGlyphs" textLength="20">) -&gt;</text><text x="697" y="403.877" fill="#000" font-family="sans-serif" font-size="13" font-weight="bold" lengthAdjust="spacingAndGlyphs" textLength="29">seed</text><polygon fill="#A80036" points="571 448 581 452 571 456 575 452" style="stroke:#a80036;stroke-width:1"/><line style="stroke:#a80036;stroke-width:1" x1="419" x2="577" y1="452" y2="452"/><text x="426" y="446.477" fill="#000" font-family="sans-serif" font-size="13" lengthAdjust="spacingAndGlyphs" textLength="116">Internal Wallet Calls</text><line style="stroke:#a80036;stroke-width:1" x1="583" x2="625" y1="481.6" y2="481.6"/><line style="stroke:#a80036;stroke-width:1" x1="625" x2="625" y1="481.6" y2="494.6"/><line style="stroke:#a80036;stroke-width:1" x1="584" x2="625" y1="494.6" y2="494.6"/><polygon fill="#A80036" points="594 490.6 584 494.6 594 498.6 590 494.6" style="stroke:#a80036;stroke-width:1"/><text x="590" y="476.077" fill="#000" font-family="sans-serif" font-size="13" lengthAdjust="spacingAndGlyphs" textLength="27">Drop</text><text x="621" y="476.077" fill="#000" font-family="sans-serif" font-size="13" font-weight="bold" lengthAdjust="spacingAndGlyphs" textLength="29">seed</text><polygon fill="#A80036" points="266 520.2 256 524.2 266 528.2 262 524.2" style="stroke:#a80036;stroke-width:1"/><line style="stroke:#a80036;stroke-width:1" x1="260" x2="418" y1="524.2" y2="524.2"/><text x="272" y="518.677" fill="#000" font-family="sans-serif" font-size="13" lengthAdjust="spacingAndGlyphs" textLength="46">Return (</text><text x="318" y="518.677" fill="#000" font-family="sans-serif" font-size="13" font-weight="bold" lengthAdjust="spacingAndGlyphs" textLength="27">resp</text><text x="345" y="518.677" fill="#000" font-family="sans-serif" font-size="13" lengthAdjust="spacingAndGlyphs" textLength="4">)</text><line style="stroke:#a80036;stroke-width:1" x1="255" x2="297" y1="553.8" y2="553.8"/><line style="stroke:#a80036;stroke-width:1" x1="297" x2="297" y1="553.8" y2="566.8"/><line style="stroke:#a80036;stroke-width:1" x1="256" x2="297" y1="566.8" y2="566.8"/><polygon fill="#A80036" points="266 562.8 256 566.8 266 570.8 262 566.8" style="stroke:#a80036;stroke-width:1"/><text x="262" y="548.277" fill="#000" font-family="sans-serif" font-size="13" lengthAdjust="spacingAndGlyphs" textLength="25">enc(</text><text x="287" y="548.277" fill="#000" font-family="sans-serif" font-size="13" font-weight="bold" lengthAdjust="spacingAndGlyphs" textLength="27">resp</text><text x="314" y="548.277" fill="#000" font-family="sans-serif" font-size="13" lengthAdjust="spacingAndGlyphs" textLength="4">,</text><text x="322" y="548.277" fill="#000" font-family="sans-serif" font-size="13" font-weight="bold" lengthAdjust="spacingAndGlyphs" textLength="7">s</text><text x="329" y="548.277" fill="#000" font-family="sans-serif" font-size="13" lengthAdjust="spacingAndGlyphs" textLength="28">) -&gt; (</text><text x="357" y="548.277" fill="#000" font-family="sans-serif" font-size="13" font-weight="bold" lengthAdjust="spacingAndGlyphs" textLength="51">respEnc</text><text x="408" y="548.277" fill="#000" font-family="sans-serif" font-size="13" lengthAdjust="spacingAndGlyphs" textLength="4">)</text><polygon fill="#A80036" points="40 592.4 30 596.4 40 600.4 36 596.4" style="stroke:#a80036;stroke-width:1"/><line style="stroke:#a80036;stroke-width:1" x1="34" x2="254" y1="596.4" y2="596.4"/><text x="46" y="590.877" fill="#000" font-family="sans-serif" font-size="13" lengthAdjust="spacingAndGlyphs" textLength="46">Return (</text><text x="92" y="590.877" fill="#000" font-family="sans-serif" font-size="13" font-weight="bold" lengthAdjust="spacingAndGlyphs" textLength="51">respEnc</text><text x="143" y="590.877" fill="#000" font-family="sans-serif" font-size="13" lengthAdjust="spacingAndGlyphs" textLength="4">)</text><line style="stroke:#a80036;stroke-width:1" x1="29" x2="71" y1="626" y2="626"/><line style="stroke:#a80036;stroke-width:1" x1="71" x2="71" y1="626" y2="639"/><line style="stroke:#a80036;stroke-width:1" x1="30" x2="71" y1="639" y2="639"/><polygon fill="#A80036" points="40 635 30 639 40 643 36 639" style="stroke:#a80036;stroke-width:1"/><text x="36" y="620.477" fill="#000" font-family="sans-serif" font-size="13" lengthAdjust="spacingAndGlyphs" textLength="25">dec(</text><text x="61" y="620.477" fill="#000" font-family="sans-serif" font-size="13" font-weight="bold" lengthAdjust="spacingAndGlyphs" textLength="7">s</text><text x="68" y="620.477" fill="#000" font-family="sans-serif" font-size="13" lengthAdjust="spacingAndGlyphs" textLength="4">,</text><text x="76" y="620.477" fill="#000" font-family="sans-serif" font-size="13" font-weight="bold" lengthAdjust="spacingAndGlyphs" textLength="51">respEnc</text><text x="127" y="620.477" fill="#000" font-family="sans-serif" font-size="13" lengthAdjust="spacingAndGlyphs" textLength="20">) -&gt;</text><text x="151" y="620.477" fill="#000" font-family="sans-serif" font-size="13" font-weight="bold" lengthAdjust="spacingAndGlyphs" textLength="27">resp</text></g></svg>