<svg xmlns="http://www.w3.org/2000/svg" xmlns:xlink="http://www.w3.org/1999/xlink" width="670" height="655" contentScriptType="application/ecmascript" contentStyleType="text/css" style="width:670px;height:655px" preserveAspectRatio="none" version="1.1" viewBox="0 0 670 655" zoomAndPan="magnify"><defs><filter id="f1eig2f90vuw0f" width="300%" height="300%" x="-1" y="-1"><feGaussianBlur result="blurOut" stdDeviation="2"/><feColorMatrix in="blurOut" result="blurOut2" type="matrix" values="0 0 0 0 0 0 0 0 0 0 0 0 0 0 0 0 0 0 .4 0"/><feOffset dx="4" dy="4" in="blurOut2" result="blurOut3"/><feBlend in="SourceGraphic" in2="blurOut3" mode="normal"/></filter></defs><g><text x="213.5" y="23.006" fill="#000" font-family="sans-serif" font-size="14" font-weight="bold" lengthAdjust="spacingAndGlyphs" textLength="234">Opening a Wallet (Directly Linked)</text><line style="stroke:#a80036;stroke-width:1;stroke-dasharray:5,5" x1="29" x2="29" y1="117.6" y2="568.2"/><line style="stroke:#a80036;stroke-width:1;stroke-dasharray:5,5" x1="292.5" x2="292.5" y1="117.6" y2="568.2"/><line style="stroke:#a80036;stroke-width:1;stroke-dasharray:5,5" x1="468" x2="468" y1="117.6" y2="568.2"/><text x="8" y="113.806" fill="#000" font-family="sans-serif" font-size="14" lengthAdjust="spacingAndGlyphs" textLength="36">Client</text><ellipse cx="29" cy="43.8" fill="#FEFECE" filter="url(#f1eig2f90vuw0f)" rx="8" ry="8" style="stroke:#a80036;stroke-width:2"/><path fill="none" d="M29,51.7999 L29,78.7999 M16,59.7999 L42,59.7999 M29,78.7999 L16,93.7999 M29,78.7999 L42,93.7999" filter="url(#f1eig2f90vuw0f)" style="stroke:#a80036;stroke-width:2"/><text x="8" y="580.206" fill="#000" font-family="sans-serif" font-size="14" lengthAdjust="spacingAndGlyphs" textLength="36">Client</text><ellipse cx="29" cy="594" fill="#FEFECE" filter="url(#f1eig2f90vuw0f)" rx="8" ry="8" style="stroke:#a80036;stroke-width:2"/><path fill="none" d="M29,601.9999 L29,628.9999 M16,609.9999 L42,609.9999 M29,628.9999 L16,643.9999 M29,628.9999 L42,643.9999" filter="url(#f1eig2f90vuw0f)" style="stroke:#a80036;stroke-width:2"/><rect style="stroke:#a80036;stroke-width:1.5" width="121" height="30.8" x="230.5" y="81.8" fill="#FEFECE" filter="url(#f1eig2f90vuw0f)"/><text x="237.5" y="101.806" fill="#000" font-family="sans-serif" font-size="14" lengthAdjust="spacingAndGlyphs" textLength="107">Internal Rust API</text><rect style="stroke:#a80036;stroke-width:1.5" width="121" height="30.8" x="230.5" y="567.2" fill="#FEFECE" filter="url(#f1eig2f90vuw0f)"/><text x="237.5" y="587.206" fill="#000" font-family="sans-serif" font-size="14" lengthAdjust="spacingAndGlyphs" textLength="107">Internal Rust API</text><rect style="stroke:#a80036;stroke-width:1.5" width="112" height="30.8" x="410" y="81.8" fill="#FEFECE" filter="url(#f1eig2f90vuw0f)"/><text x="417" y="101.806" fill="#000" font-family="sans-serif" font-size="14" lengthAdjust="spacingAndGlyphs" textLength="98">Wallet Backend</text><rect style="stroke:#a80036;stroke-width:1.5" width="112" height="30.8" x="410" y="567.2" fill="#FEFECE" filter="url(#f1eig2f90vuw0f)"/><text x="417" y="587.206" fill="#000" font-family="sans-serif" font-size="14" lengthAdjust="spacingAndGlyphs" textLength="98">Wallet Backend</text><rect style="stroke:#eee;stroke-width:1" width="655" height="3" x="3" y="148.4" fill="#EEE" filter="url(#f1eig2f90vuw0f)"/><line style="stroke:#000;stroke-width:1" x1="3" x2="658" y1="148.4" y2="148.4"/><line style="stroke:#000;stroke-width:1" x1="3" x2="658" y1="151.4" y2="151.4"/><rect style="stroke:#000;stroke-width:2" width="93" height="23.6" x="284" y="137.6" fill="#EEE" filter="url(#f1eig2f90vuw0f)"/><text x="290" y="153.677" fill="#000" font-family="sans-serif" font-size="13" font-weight="bold" lengthAdjust="spacingAndGlyphs" textLength="75">Open Wallet</text><line style="stroke:#a80036;stroke-width:1" x1="29" x2="71" y1="192.8" y2="192.8"/><line style="stroke:#a80036;stroke-width:1" x1="71" x2="71" y1="192.8" y2="205.8"/><line style="stroke:#a80036;stroke-width:1" x1="30" x2="71" y1="205.8" y2="205.8"/><polygon fill="#A80036" points="40 201.8 30 205.8 40 209.8 36 205.8" style="stroke:#a80036;stroke-width:1"/><text x="36" y="187.277" fill="#000" font-family="sans-serif" font-size="13" lengthAdjust="spacingAndGlyphs" textLength="99">Supply password</text><text x="139" y="187.277" fill="#000" font-family="sans-serif" font-size="13" font-weight="bold" lengthAdjust="spacingAndGlyphs" textLength="18">pw</text><polygon fill="#A80036" points="281 231.4 291 235.4 281 239.4 285 235.4" style="stroke:#a80036;stroke-width:1"/><line style="stroke:#a80036;stroke-width:1" x1="29" x2="287" y1="235.4" y2="235.4"/><text x="36" y="229.877" fill="#000" font-family="sans-serif" font-size="13" lengthAdjust="spacingAndGlyphs" textLength="72">open_wallet(</text><text x="108" y="229.877" fill="#000" font-family="sans-serif" font-size="13" font-weight="bold" lengthAdjust="spacingAndGlyphs" textLength="18">pw</text><text x="126" y="229.877" fill="#000" font-family="sans-serif" font-size="13" lengthAdjust="spacingAndGlyphs" textLength="4">,</text><text x="134" y="229.877" fill="#000" font-family="sans-serif" font-size="13" font-weight="bold" lengthAdjust="spacingAndGlyphs" textLength="85">other_params</text><text x="219" y="229.877" fill="#000" font-family="sans-serif" font-size="13" lengthAdjust="spacingAndGlyphs" textLength="4">)</text><line style="stroke:#a80036;stroke-width:1" x1="293" x2="335" y1="265" y2="265"/><line style="stroke:#a80036;stroke-width:1" x1="335" x2="335" y1="265" y2="278"/><line style="stroke:#a80036;stroke-width:1" x1="294" x2="335" y1="278" y2="278"/><polygon fill="#A80036" points="304 274 294 278 304 282 300 278" style="stroke:#a80036;stroke-width:1"/><text x="300" y="259.477" fill="#000" font-family="sans-serif" font-size="13" lengthAdjust="spacingAndGlyphs" textLength="153">Generate Random Token (</text><text x="453" y="259.477" fill="#000" font-family="sans-serif" font-size="13" font-weight="bold" lengthAdjust="spacingAndGlyphs" textLength="4">t</text><text x="457" y="259.477" fill="#000" font-family="sans-serif" font-size="13" lengthAdjust="spacingAndGlyphs" textLength="4">)</text><polygon fill="#A80036" points="456 303.6 466 307.6 456 311.6 460 307.6" style="stroke:#a80036;stroke-width:1"/><line style="stroke:#a80036;stroke-width:1" x1="293" x2="462" y1="307.6" y2="307.6"/><text x="300" y="302.077" fill="#000" font-family="sans-serif" font-size="13" lengthAdjust="spacingAndGlyphs" textLength="75">open_Wallet(</text><text x="375" y="302.077" fill="#000" font-family="sans-serif" font-size="13" font-weight="bold" lengthAdjust="spacingAndGlyphs" textLength="4">t</text><text x="379" y="302.077" fill="#000" font-family="sans-serif" font-size="13" lengthAdjust="spacingAndGlyphs" textLength="4">,</text><text x="387" y="302.077" fill="#000" font-family="sans-serif" font-size="13" font-weight="bold" lengthAdjust="spacingAndGlyphs" textLength="18">pw</text><text x="405" y="302.077" fill="#000" font-family="sans-serif" font-size="13" lengthAdjust="spacingAndGlyphs" textLength="4">)</text><line style="stroke:#a80036;stroke-width:1" x1="468" x2="510" y1="337.2" y2="337.2"/><line style="stroke:#a80036;stroke-width:1" x1="510" x2="510" y1="337.2" y2="350.2"/><line style="stroke:#a80036;stroke-width:1" x1="469" x2="510" y1="350.2" y2="350.2"/><polygon fill="#A80036" points="479 346.2 469 350.2 479 354.2 475 350.2" style="stroke:#a80036;stroke-width:1"/><text x="475" y="331.677" fill="#000" font-family="sans-serif" font-size="13" lengthAdjust="spacingAndGlyphs" textLength="81">Decrypt seed(</text><text x="556" y="331.677" fill="#000" font-family="sans-serif" font-size="13" font-weight="bold" lengthAdjust="spacingAndGlyphs" textLength="42">req.pw</text><text x="598" y="331.677" fill="#000" font-family="sans-serif" font-size="13" lengthAdjust="spacingAndGlyphs" textLength="20">) -&gt;</text><text x="622" y="331.677" fill="#000" font-family="sans-serif" font-size="13" font-weight="bold" lengthAdjust="spacingAndGlyphs" textLength="29">seed</text><line style="stroke:#a80036;stroke-width:1" x1="468" x2="510" y1="379.8" y2="379.8"/><line style="stroke:#a80036;stroke-width:1" x1="510" x2="510" y1="379.8" y2="392.8"/><line style="stroke:#a80036;stroke-width:1" x1="469" x2="510" y1="392.8" y2="392.8"/><polygon fill="#A80036" points="479 388.8 469 392.8 479 396.8 475 392.8" style="stroke:#a80036;stroke-width:1"/><text x="475" y="374.277" fill="#000" font-family="sans-serif" font-size="13" lengthAdjust="spacingAndGlyphs" textLength="31">Store</text><text x="510" y="374.277" fill="#000" font-family="sans-serif" font-size="13" font-weight="bold" lengthAdjust="spacingAndGlyphs" textLength="29">seed</text><text x="539" y="374.277" fill="#000" font-family="sans-serif" font-size="13" lengthAdjust="spacingAndGlyphs" textLength="6">^</text><text x="545" y="374.277" fill="#000" font-family="sans-serif" font-size="13" font-weight="bold" lengthAdjust="spacingAndGlyphs" textLength="4">t</text><text x="553" y="374.277" fill="#000" font-family="sans-serif" font-size="13" lengthAdjust="spacingAndGlyphs" textLength="20">-&gt; (</text><text x="573" y="374.277" fill="#000" font-family="sans-serif" font-size="13" font-weight="bold" lengthAdjust="spacingAndGlyphs" textLength="37">seedT</text><text x="610" y="374.277" fill="#000" font-family="sans-serif" font-size="13" lengthAdjust="spacingAndGlyphs" textLength="4">)</text><line style="stroke:#a80036;stroke-width:1" x1="293" x2="335" y1="422.4" y2="422.4"/><line style="stroke:#a80036;stroke-width:1" x1="335" x2="335" y1="422.4" y2="435.4"/><line style="stroke:#a80036;stroke-width:1" x1="294" x2="335" y1="435.4" y2="435.4"/><polygon fill="#A80036" points="304 431.4 294 435.4 304 439.4 300 435.4" style="stroke:#a80036;stroke-width:1"/><text x="300" y="416.877" fill="#000" font-family="sans-serif" font-size="13" lengthAdjust="spacingAndGlyphs" textLength="42">Include</text><text x="346" y="416.877" fill="#000" font-family="sans-serif" font-size="13" font-weight="bold" lengthAdjust="spacingAndGlyphs" textLength="4">t</text><text x="354" y="416.877" fill="#000" font-family="sans-serif" font-size="13" lengthAdjust="spacingAndGlyphs" textLength="10">in</text><text x="368" y="416.877" fill="#000" font-family="sans-serif" font-size="13" font-weight="bold" lengthAdjust="spacingAndGlyphs" textLength="70">return_data</text><polygon fill="#A80036" points="40 461 30 465 40 469 36 465" style="stroke:#a80036;stroke-width:1"/><line style="stroke:#a80036;stroke-width:1" x1="34" x2="292" y1="465" y2="465"/><text x="46" y="459.477" fill="#000" font-family="sans-serif" font-size="13" lengthAdjust="spacingAndGlyphs" textLength="46">Return (</text><text x="92" y="459.477" fill="#000" font-family="sans-serif" font-size="13" font-weight="bold" lengthAdjust="spacingAndGlyphs" textLength="70">return_data</text><text x="162" y="459.477" fill="#000" font-family="sans-serif" font-size="13" lengthAdjust="spacingAndGlyphs" textLength="4">)</text><line style="stroke:#a80036;stroke-width:1" x1="29" x2="71" y1="494.6" y2="494.6"/><line style="stroke:#a80036;stroke-width:1" x1="71" x2="71" y1="494.6" y2="507.6"/><line style="stroke:#a80036;stroke-width:1" x1="30" x2="71" y1="507.6" y2="507.6"/><polygon fill="#A80036" points="40 503.6 30 507.6 40 511.6 36 507.6" style="stroke:#a80036;stroke-width:1"/><text x="36" y="489.077" fill="#000" font-family="sans-serif" font-size="13" lengthAdjust="spacingAndGlyphs" textLength="31">Store</text><text x="71" y="489.077" fill="#000" font-family="sans-serif" font-size="13" font-weight="bold" lengthAdjust="spacingAndGlyphs" textLength="78">return_data.t</text><text x="153" y="489.077" fill="#000" font-family="sans-serif" font-size="13" lengthAdjust="spacingAndGlyphs" textLength="14">as</text><text x="171" y="489.077" fill="#000" font-family="sans-serif" font-size="13" font-weight="bold" lengthAdjust="spacingAndGlyphs" textLength="4">t</text><line style="stroke:#a80036;stroke-width:1" x1="29" x2="71" y1="537.2" y2="537.2"/><line style="stroke:#a80036;stroke-width:1" x1="71" x2="71" y1="537.2" y2="550.2"/><line style="stroke:#a80036;stroke-width:1" x1="30" x2="71" y1="550.2" y2="550.2"/><polygon fill="#A80036" points="40 546.2 30 550.2 40 554.2 36 550.2" style="stroke:#a80036;stroke-width:1"/><text x="36" y="531.677" fill="#000" font-family="sans-serif" font-size="13" lengthAdjust="spacingAndGlyphs" textLength="40">Supply</text><text x="80" y="531.677" fill="#000" font-family="sans-serif" font-size="13" font-weight="bold" lengthAdjust="spacingAndGlyphs" textLength="4">t</text><text x="88" y="531.677" fill="#000" font-family="sans-serif" font-size="13" lengthAdjust="spacingAndGlyphs" textLength="198">as parameter to all other API calls</text></g></svg>