<svg xmlns="http://www.w3.org/2000/svg" xmlns:xlink="http://www.w3.org/1999/xlink" width="557" height="515" contentScriptType="application/ecmascript" contentStyleType="text/css" style="width:557px;height:515px" preserveAspectRatio="none" version="1.1" viewBox="0 0 557 515" zoomAndPan="magnify"><defs><filter id="f10ho7capcolji" width="300%" height="300%" x="-1" y="-1"><feGaussianBlur result="blurOut" stdDeviation="2"/><feColorMatrix in="blurOut" result="blurOut2" type="matrix" values="0 0 0 0 0 0 0 0 0 0 0 0 0 0 0 0 0 0 .4 0"/><feOffset dx="4" dy="4" in="blurOut2" result="blurOut3"/><feBlend in="SourceGraphic" in2="blurOut3" mode="normal"/></filter></defs><g><text x="166" y="23.006" fill="#000" font-family="sans-serif" font-size="14" font-weight="bold" lengthAdjust="spacingAndGlyphs" textLength="216">Wallet API Call (Directly Linked)</text><line style="stroke:#a80036;stroke-width:1;stroke-dasharray:5,5" x1="29" x2="29" y1="117.6" y2="427.4"/><line style="stroke:#a80036;stroke-width:1;stroke-dasharray:5,5" x1="254.5" x2="254.5" y1="117.6" y2="427.4"/><line style="stroke:#a80036;stroke-width:1;stroke-dasharray:5,5" x1="395" x2="395" y1="117.6" y2="427.4"/><text x="8" y="113.806" fill="#000" font-family="sans-serif" font-size="14" lengthAdjust="spacingAndGlyphs" textLength="36">Client</text><ellipse cx="29" cy="43.8" fill="#FEFECE" filter="url(#f10ho7capcolji)" rx="8" ry="8" style="stroke:#a80036;stroke-width:2"/><path fill="none" d="M29,51.7999 L29,78.7999 M16,59.7999 L42,59.7999 M29,78.7999 L16,93.7999 M29,78.7999 L42,93.7999" filter="url(#f10ho7capcolji)" style="stroke:#a80036;stroke-width:2"/><text x="8" y="439.406" fill="#000" font-family="sans-serif" font-size="14" lengthAdjust="spacingAndGlyphs" textLength="36">Client</text><ellipse cx="29" cy="453.2" fill="#FEFECE" filter="url(#f10ho7capcolji)" rx="8" ry="8" style="stroke:#a80036;stroke-width:2"/><path fill="none" d="M29,461.1999 L29,488.1999 M16,469.1999 L42,469.1999 M29,488.1999 L16,503.1999 M29,488.1999 L42,503.1999" filter="url(#f10ho7capcolji)" style="stroke:#a80036;stroke-width:2"/><rect style="stroke:#a80036;stroke-width:1.5" width="121" height="30.8" x="192.5" y="81.8" fill="#FEFECE" filter="url(#f10ho7capcolji)"/><text x="199.5" y="101.806" fill="#000" font-family="sans-serif" font-size="14" lengthAdjust="spacingAndGlyphs" textLength="107">Internal Rust API</text><rect style="stroke:#a80036;stroke-width:1.5" width="121" height="30.8" x="192.5" y="426.4" fill="#FEFECE" filter="url(#f10ho7capcolji)"/><text x="199.5" y="446.406" fill="#000" font-family="sans-serif" font-size="14" lengthAdjust="spacingAndGlyphs" textLength="107">Internal Rust API</text><rect style="stroke:#a80036;stroke-width:1.5" width="112" height="30.8" x="337" y="81.8" fill="#FEFECE" filter="url(#f10ho7capcolji)"/><text x="344" y="101.806" fill="#000" font-family="sans-serif" font-size="14" lengthAdjust="spacingAndGlyphs" textLength="98">Wallet Backend</text><rect style="stroke:#a80036;stroke-width:1.5" width="112" height="30.8" x="337" y="426.4" fill="#FEFECE" filter="url(#f10ho7capcolji)"/><text x="344" y="446.406" fill="#000" font-family="sans-serif" font-size="14" lengthAdjust="spacingAndGlyphs" textLength="98">Wallet Backend</text><rect style="stroke:#eee;stroke-width:1" width="542" height="3" x="3" y="148.4" fill="#EEE" filter="url(#f10ho7capcolji)"/><line style="stroke:#000;stroke-width:1" x1="3" x2="545" y1="148.4" y2="148.4"/><line style="stroke:#000;stroke-width:1" x1="3" x2="545" y1="151.4" y2="151.4"/><rect style="stroke:#000;stroke-width:2" width="68" height="23.6" x="240" y="137.6" fill="#EEE" filter="url(#f10ho7capcolji)"/><text x="246" y="153.677" fill="#000" font-family="sans-serif" font-size="13" font-weight="bold" lengthAdjust="spacingAndGlyphs" textLength="50">API Call</text><line style="stroke:#a80036;stroke-width:1" x1="29" x2="71" y1="192.8" y2="192.8"/><line style="stroke:#a80036;stroke-width:1" x1="71" x2="71" y1="192.8" y2="205.8"/><line style="stroke:#a80036;stroke-width:1" x1="30" x2="71" y1="205.8" y2="205.8"/><polygon fill="#A80036" points="40 201.8 30 205.8 40 209.8 36 205.8" style="stroke:#a80036;stroke-width:1"/><text x="36" y="187.277" fill="#000" font-family="sans-serif" font-size="13" lengthAdjust="spacingAndGlyphs" textLength="74">Stored token</text><text x="114" y="187.277" fill="#000" font-family="sans-serif" font-size="13" font-weight="bold" lengthAdjust="spacingAndGlyphs" textLength="4">t</text><polygon fill="#A80036" points="243 231.4 253 235.4 243 239.4 247 235.4" style="stroke:#a80036;stroke-width:1"/><line style="stroke:#a80036;stroke-width:1" x1="29" x2="249" y1="235.4" y2="235.4"/><text x="36" y="229.877" fill="#000" font-family="sans-serif" font-size="13" lengthAdjust="spacingAndGlyphs" textLength="101">call_api_function(</text><text x="137" y="229.877" fill="#000" font-family="sans-serif" font-size="13" font-weight="bold" lengthAdjust="spacingAndGlyphs" textLength="4">t</text><text x="141" y="229.877" fill="#000" font-family="sans-serif" font-size="13" lengthAdjust="spacingAndGlyphs" textLength="4">,</text><text x="149" y="229.877" fill="#000" font-family="sans-serif" font-size="13" font-weight="bold" lengthAdjust="spacingAndGlyphs" textLength="85">other_params</text><text x="234" y="229.877" fill="#000" font-family="sans-serif" font-size="13" lengthAdjust="spacingAndGlyphs" textLength="4">)</text><polygon fill="#A80036" points="383 261 393 265 383 269 387 265" style="stroke:#a80036;stroke-width:1"/><line style="stroke:#a80036;stroke-width:1" x1="255" x2="389" y1="265" y2="265"/><text x="262" y="259.477" fill="#000" font-family="sans-serif" font-size="13" lengthAdjust="spacingAndGlyphs" textLength="82">retrieve_seed(</text><text x="344" y="259.477" fill="#000" font-family="sans-serif" font-size="13" font-weight="bold" lengthAdjust="spacingAndGlyphs" textLength="4">t</text><text x="348" y="259.477" fill="#000" font-family="sans-serif" font-size="13" lengthAdjust="spacingAndGlyphs" textLength="4">)</text><line style="stroke:#a80036;stroke-width:1" x1="395" x2="437" y1="294.6" y2="294.6"/><line style="stroke:#a80036;stroke-width:1" x1="437" x2="437" y1="294.6" y2="307.6"/><line style="stroke:#a80036;stroke-width:1" x1="396" x2="437" y1="307.6" y2="307.6"/><polygon fill="#A80036" points="406 303.6 396 307.6 406 311.6 402 307.6" style="stroke:#a80036;stroke-width:1"/><text x="402" y="289.077" fill="#000" font-family="sans-serif" font-size="13" lengthAdjust="spacingAndGlyphs" textLength="28">calc(</text><text x="430" y="289.077" fill="#000" font-family="sans-serif" font-size="13" font-weight="bold" lengthAdjust="spacingAndGlyphs" textLength="4">t</text><text x="438" y="289.077" fill="#000" font-family="sans-serif" font-size="13" lengthAdjust="spacingAndGlyphs" textLength="6">^</text><text x="448" y="289.077" fill="#000" font-family="sans-serif" font-size="13" font-weight="bold" lengthAdjust="spacingAndGlyphs" textLength="37">seedT</text><text x="485" y="289.077" fill="#000" font-family="sans-serif" font-size="13" lengthAdjust="spacingAndGlyphs" textLength="20">) -&gt;</text><text x="509" y="289.077" fill="#000" font-family="sans-serif" font-size="13" font-weight="bold" lengthAdjust="spacingAndGlyphs" textLength="29">seed</text><polygon fill="#A80036" points="383 333.2 393 337.2 383 341.2 387 337.2" style="stroke:#a80036;stroke-width:1"/><line style="stroke:#a80036;stroke-width:1" x1="255" x2="389" y1="337.2" y2="337.2"/><text x="262" y="331.677" fill="#000" font-family="sans-serif" font-size="13" lengthAdjust="spacingAndGlyphs" textLength="116">Internal Wallet Calls</text><line style="stroke:#a80036;stroke-width:1" x1="395" x2="437" y1="366.8" y2="366.8"/><line style="stroke:#a80036;stroke-width:1" x1="437" x2="437" y1="366.8" y2="379.8"/><line style="stroke:#a80036;stroke-width:1" x1="396" x2="437" y1="379.8" y2="379.8"/><polygon fill="#A80036" points="406 375.8 396 379.8 406 383.8 402 379.8" style="stroke:#a80036;stroke-width:1"/><text x="402" y="361.277" fill="#000" font-family="sans-serif" font-size="13" lengthAdjust="spacingAndGlyphs" textLength="27">Drop</text><text x="433" y="361.277" fill="#000" font-family="sans-serif" font-size="13" font-weight="bold" lengthAdjust="spacingAndGlyphs" textLength="29">seed</text><polygon fill="#A80036" points="40 405.4 30 409.4 40 413.4 36 409.4" style="stroke:#a80036;stroke-width:1"/><line style="stroke:#a80036;stroke-width:1" x1="34" x2="254" y1="409.4" y2="409.4"/><text x="46" y="403.877" fill="#000" font-family="sans-serif" font-size="13" lengthAdjust="spacingAndGlyphs" textLength="46">Return (</text><text x="92" y="403.877" fill="#000" font-family="sans-serif" font-size="13" font-weight="bold" lengthAdjust="spacingAndGlyphs" textLength="70">return_data</text><text x="162" y="403.877" fill="#000" font-family="sans-serif" font-size="13" lengthAdjust="spacingAndGlyphs" textLength="4">)</text></g></svg>