<svg xmlns="http://www.w3.org/2000/svg" xmlns:xlink="http://www.w3.org/1999/xlink" width="835" height="885" contentScriptType="application/ecmascript" contentStyleType="text/css" style="width:835px;height:885px" preserveAspectRatio="none" version="1.1" viewBox="0 0 835 885" zoomAndPan="magnify"><defs><filter id="flfa17tx7fhug" width="300%" height="300%" x="-1" y="-1"><feGaussianBlur result="blurOut" stdDeviation="2"/><feColorMatrix in="blurOut" result="blurOut2" type="matrix" values="0 0 0 0 0 0 0 0 0 0 0 0 0 0 0 0 0 0 .4 0"/><feOffset dx="4" dy="4" in="blurOut2" result="blurOut3"/><feBlend in="SourceGraphic" in2="blurOut3" mode="normal"/></filter></defs><g><text x="236" y="23.006" fill="#000" font-family="sans-serif" font-size="14" font-weight="bold" lengthAdjust="spacingAndGlyphs" textLength="354">Opening a Wallet in Secure Mode via JSON-RPC API</text><line style="stroke:#a80036;stroke-width:1;stroke-dasharray:5,5" x1="29" x2="29" y1="117.6" y2="797.8"/><line style="stroke:#a80036;stroke-width:1;stroke-dasharray:5,5" x1="293.5" x2="293.5" y1="117.6" y2="797.8"/><line style="stroke:#a80036;stroke-width:1;stroke-dasharray:5,5" x1="457.5" x2="457.5" y1="117.6" y2="797.8"/><line style="stroke:#a80036;stroke-width:1;stroke-dasharray:5,5" x1="633" x2="633" y1="117.6" y2="797.8"/><text x="8" y="113.806" fill="#000" font-family="sans-serif" font-size="14" lengthAdjust="spacingAndGlyphs" textLength="36">Client</text><ellipse cx="29" cy="43.8" fill="#FEFECE" filter="url(#flfa17tx7fhug)" rx="8" ry="8" style="stroke:#a80036;stroke-width:2"/><path fill="none" d="M29,51.7999 L29,78.7999 M16,59.7999 L42,59.7999 M29,78.7999 L16,93.7999 M29,78.7999 L42,93.7999" filter="url(#flfa17tx7fhug)" style="stroke:#a80036;stroke-width:2"/><text x="8" y="809.806" fill="#000" font-family="sans-serif" font-size="14" lengthAdjust="spacingAndGlyphs" textLength="36">Client</text><ellipse cx="29" cy="823.6" fill="#FEFECE" filter="url(#flfa17tx7fhug)" rx="8" ry="8" style="stroke:#a80036;stroke-width:2"/><path fill="none" d="M29,831.6 L29,858.6 M16,839.6 L42,839.6 M29,858.6 L16,873.6 M29,858.6 L42,873.6" filter="url(#flfa17tx7fhug)" style="stroke:#a80036;stroke-width:2"/><rect style="stroke:#a80036;stroke-width:1.5" width="111" height="30.8" x="236.5" y="81.8" fill="#FEFECE" filter="url(#flfa17tx7fhug)"/><text x="243.5" y="101.806" fill="#000" font-family="sans-serif" font-size="14" lengthAdjust="spacingAndGlyphs" textLength="97">JSON-RPC API</text><rect style="stroke:#a80036;stroke-width:1.5" width="111" height="30.8" x="236.5" y="796.8" fill="#FEFECE" filter="url(#flfa17tx7fhug)"/><text x="243.5" y="816.806" fill="#000" font-family="sans-serif" font-size="14" lengthAdjust="spacingAndGlyphs" textLength="97">JSON-RPC API</text><rect style="stroke:#a80036;stroke-width:1.5" width="121" height="30.8" x="395.5" y="81.8" fill="#FEFECE" filter="url(#flfa17tx7fhug)"/><text x="402.5" y="101.806" fill="#000" font-family="sans-serif" font-size="14" lengthAdjust="spacingAndGlyphs" textLength="107">Internal Rust API</text><rect style="stroke:#a80036;stroke-width:1.5" width="121" height="30.8" x="395.5" y="796.8" fill="#FEFECE" filter="url(#flfa17tx7fhug)"/><text x="402.5" y="816.806" fill="#000" font-family="sans-serif" font-size="14" lengthAdjust="spacingAndGlyphs" textLength="107">Internal Rust API</text><rect style="stroke:#a80036;stroke-width:1.5" width="112" height="30.8" x="575" y="81.8" fill="#FEFECE" filter="url(#flfa17tx7fhug)"/><text x="582" y="101.806" fill="#000" font-family="sans-serif" font-size="14" lengthAdjust="spacingAndGlyphs" textLength="98">Wallet Backend</text><rect style="stroke:#a80036;stroke-width:1.5" width="112" height="30.8" x="575" y="796.8" fill="#FEFECE" filter="url(#flfa17tx7fhug)"/><text x="582" y="816.806" fill="#000" font-family="sans-serif" font-size="14" lengthAdjust="spacingAndGlyphs" textLength="98">Wallet Backend</text><rect style="stroke:#eee;stroke-width:1" width="820" height="3" x="3" y="148.4" fill="#EEE" filter="url(#flfa17tx7fhug)"/><line style="stroke:#000;stroke-width:1" x1="3" x2="823" y1="148.4" y2="148.4"/><line style="stroke:#000;stroke-width:1" x1="3" x2="823" y1="151.4" y2="151.4"/><rect style="stroke:#000;stroke-width:2" width="93" height="23.6" x="366.5" y="137.6" fill="#EEE" filter="url(#flfa17tx7fhug)"/><text x="372.5" y="153.677" fill="#000" font-family="sans-serif" font-size="13" font-weight="bold" lengthAdjust="spacingAndGlyphs" textLength="75">Open Wallet</text><line style="stroke:#a80036;stroke-width:1" x1="29" x2="71" y1="192.8" y2="192.8"/><line style="stroke:#a80036;stroke-width:1" x1="71" x2="71" y1="192.8" y2="205.8"/><line style="stroke:#a80036;stroke-width:1" x1="30" x2="71" y1="205.8" y2="205.8"/><polygon fill="#A80036" points="40 201.8 30 205.8 40 209.8 36 205.8" style="stroke:#a80036;stroke-width:1"/><text x="36" y="187.277" fill="#000" font-family="sans-serif" font-size="13" lengthAdjust="spacingAndGlyphs" textLength="127">Supply password field</text><text x="167" y="187.277" fill="#000" font-family="sans-serif" font-size="13" font-weight="bold" lengthAdjust="spacingAndGlyphs" textLength="18">pw</text><text x="189" y="187.277" fill="#000" font-family="sans-serif" font-size="13" lengthAdjust="spacingAndGlyphs" textLength="10">in</text><text x="203" y="187.277" fill="#000" font-family="sans-serif" font-size="13" font-weight="bold" lengthAdjust="spacingAndGlyphs" textLength="20">req</text><text x="227" y="187.277" fill="#000" font-family="sans-serif" font-size="13" lengthAdjust="spacingAndGlyphs" textLength="14">as</text><text x="245" y="187.277" fill="#000" font-family="sans-serif" font-size="13" font-weight="bold" lengthAdjust="spacingAndGlyphs" textLength="42">req.pw</text><line style="stroke:#a80036;stroke-width:1" x1="29" x2="71" y1="235.4" y2="235.4"/><line style="stroke:#a80036;stroke-width:1" x1="71" x2="71" y1="235.4" y2="248.4"/><line style="stroke:#a80036;stroke-width:1" x1="30" x2="71" y1="248.4" y2="248.4"/><polygon fill="#A80036" points="40 244.4 30 248.4 40 252.4 36 248.4" style="stroke:#a80036;stroke-width:1"/><text x="36" y="229.877" fill="#000" font-family="sans-serif" font-size="13" lengthAdjust="spacingAndGlyphs" textLength="25">enc(</text><text x="61" y="229.877" fill="#000" font-family="sans-serif" font-size="13" font-weight="bold" lengthAdjust="spacingAndGlyphs" textLength="20">req</text><text x="81" y="229.877" fill="#000" font-family="sans-serif" font-size="13" lengthAdjust="spacingAndGlyphs" textLength="4">,</text><text x="89" y="229.877" fill="#000" font-family="sans-serif" font-size="13" font-weight="bold" lengthAdjust="spacingAndGlyphs" textLength="7">s</text><text x="96" y="229.877" fill="#000" font-family="sans-serif" font-size="13" lengthAdjust="spacingAndGlyphs" textLength="20">) -&gt;</text><text x="120" y="229.877" fill="#000" font-family="sans-serif" font-size="13" font-weight="bold" lengthAdjust="spacingAndGlyphs" textLength="44">reqEnc</text><polygon fill="#A80036" points="282 274 292 278 282 282 286 278" style="stroke:#a80036;stroke-width:1"/><line style="stroke:#a80036;stroke-width:1" x1="29" x2="288" y1="278" y2="278"/><text x="36" y="272.477" fill="#000" font-family="sans-serif" font-size="13" lengthAdjust="spacingAndGlyphs" textLength="72">open_wallet(</text><text x="108" y="272.477" fill="#000" font-family="sans-serif" font-size="13" font-weight="bold" lengthAdjust="spacingAndGlyphs" textLength="44">reqEnc</text><text x="152" y="272.477" fill="#000" font-family="sans-serif" font-size="13" lengthAdjust="spacingAndGlyphs" textLength="4">)</text><line style="stroke:#a80036;stroke-width:1" x1="294" x2="336" y1="307.6" y2="307.6"/><line style="stroke:#a80036;stroke-width:1" x1="336" x2="336" y1="307.6" y2="320.6"/><line style="stroke:#a80036;stroke-width:1" x1="295" x2="336" y1="320.6" y2="320.6"/><polygon fill="#A80036" points="305 316.6 295 320.6 305 324.6 301 320.6" style="stroke:#a80036;stroke-width:1"/><text x="301" y="302.077" fill="#000" font-family="sans-serif" font-size="13" lengthAdjust="spacingAndGlyphs" textLength="25">dec(</text><text x="326" y="302.077" fill="#000" font-family="sans-serif" font-size="13" font-weight="bold" lengthAdjust="spacingAndGlyphs" textLength="44">reqEnc</text><text x="370" y="302.077" fill="#000" font-family="sans-serif" font-size="13" lengthAdjust="spacingAndGlyphs" textLength="4">,</text><text x="378" y="302.077" fill="#000" font-family="sans-serif" font-size="13" font-weight="bold" lengthAdjust="spacingAndGlyphs" textLength="7">s</text><text x="385" y="302.077" fill="#000" font-family="sans-serif" font-size="13" lengthAdjust="spacingAndGlyphs" textLength="20">) -&gt;</text><text x="409" y="302.077" fill="#000" font-family="sans-serif" font-size="13" font-weight="bold" lengthAdjust="spacingAndGlyphs" textLength="20">req</text><polygon fill="#A80036" points="446 346.2 456 350.2 446 354.2 450 350.2" style="stroke:#a80036;stroke-width:1"/><line style="stroke:#a80036;stroke-width:1" x1="294" x2="452" y1="350.2" y2="350.2"/><text x="301" y="344.677" fill="#000" font-family="sans-serif" font-size="13" lengthAdjust="spacingAndGlyphs" textLength="72">open_wallet(</text><text x="373" y="344.677" fill="#000" font-family="sans-serif" font-size="13" font-weight="bold" lengthAdjust="spacingAndGlyphs" textLength="20">req</text><text x="393" y="344.677" fill="#000" font-family="sans-serif" font-size="13" lengthAdjust="spacingAndGlyphs" textLength="4">)</text><line style="stroke:#a80036;stroke-width:1" x1="458" x2="500" y1="379.8" y2="379.8"/><line style="stroke:#a80036;stroke-width:1" x1="500" x2="500" y1="379.8" y2="392.8"/><line style="stroke:#a80036;stroke-width:1" x1="459" x2="500" y1="392.8" y2="392.8"/><polygon fill="#A80036" points="469 388.8 459 392.8 469 396.8 465 392.8" style="stroke:#a80036;stroke-width:1"/><text x="465" y="374.277" fill="#000" font-family="sans-serif" font-size="13" lengthAdjust="spacingAndGlyphs" textLength="153">Generate Random Token (</text><text x="618" y="374.277" fill="#000" font-family="sans-serif" font-size="13" font-weight="bold" lengthAdjust="spacingAndGlyphs" textLength="4">t</text><text x="622" y="374.277" fill="#000" font-family="sans-serif" font-size="13" lengthAdjust="spacingAndGlyphs" textLength="4">)</text><polygon fill="#A80036" points="621 418.4 631 422.4 621 426.4 625 422.4" style="stroke:#a80036;stroke-width:1"/><line style="stroke:#a80036;stroke-width:1" x1="458" x2="627" y1="422.4" y2="422.4"/><text x="465" y="416.877" fill="#000" font-family="sans-serif" font-size="13" lengthAdjust="spacingAndGlyphs" textLength="75">Open Wallet(</text><text x="540" y="416.877" fill="#000" font-family="sans-serif" font-size="13" font-weight="bold" lengthAdjust="spacingAndGlyphs" textLength="4">t</text><text x="544" y="416.877" fill="#000" font-family="sans-serif" font-size="13" lengthAdjust="spacingAndGlyphs" textLength="4">,</text><text x="552" y="416.877" fill="#000" font-family="sans-serif" font-size="13" font-weight="bold" lengthAdjust="spacingAndGlyphs" textLength="42">req.pw</text><text x="594" y="416.877" fill="#000" font-family="sans-serif" font-size="13" lengthAdjust="spacingAndGlyphs" textLength="4">)</text><line style="stroke:#a80036;stroke-width:1" x1="633" x2="675" y1="452" y2="452"/><line style="stroke:#a80036;stroke-width:1" x1="675" x2="675" y1="452" y2="465"/><line style="stroke:#a80036;stroke-width:1" x1="634" x2="675" y1="465" y2="465"/><polygon fill="#A80036" points="644 461 634 465 644 469 640 465" style="stroke:#a80036;stroke-width:1"/><text x="640" y="446.477" fill="#000" font-family="sans-serif" font-size="13" lengthAdjust="spacingAndGlyphs" textLength="81">Decrypt seed(</text><text x="721" y="446.477" fill="#000" font-family="sans-serif" font-size="13" font-weight="bold" lengthAdjust="spacingAndGlyphs" textLength="42">req.pw</text><text x="763" y="446.477" fill="#000" font-family="sans-serif" font-size="13" lengthAdjust="spacingAndGlyphs" textLength="20">) -&gt;</text><text x="787" y="446.477" fill="#000" font-family="sans-serif" font-size="13" font-weight="bold" lengthAdjust="spacingAndGlyphs" textLength="29">seed</text><line style="stroke:#a80036;stroke-width:1" x1="633" x2="675" y1="494.6" y2="494.6"/><line style="stroke:#a80036;stroke-width:1" x1="675" x2="675" y1="494.6" y2="507.6"/><line style="stroke:#a80036;stroke-width:1" x1="634" x2="675" y1="507.6" y2="507.6"/><polygon fill="#A80036" points="644 503.6 634 507.6 644 511.6 640 507.6" style="stroke:#a80036;stroke-width:1"/><text x="640" y="489.077" fill="#000" font-family="sans-serif" font-size="13" lengthAdjust="spacingAndGlyphs" textLength="31">Store</text><text x="675" y="489.077" fill="#000" font-family="sans-serif" font-size="13" font-weight="bold" lengthAdjust="spacingAndGlyphs" textLength="29">seed</text><text x="704" y="489.077" fill="#000" font-family="sans-serif" font-size="13" lengthAdjust="spacingAndGlyphs" textLength="6">^</text><text x="710" y="489.077" fill="#000" font-family="sans-serif" font-size="13" font-weight="bold" lengthAdjust="spacingAndGlyphs" textLength="4">t</text><text x="718" y="489.077" fill="#000" font-family="sans-serif" font-size="13" lengthAdjust="spacingAndGlyphs" textLength="20">-&gt; (</text><text x="738" y="489.077" fill="#000" font-family="sans-serif" font-size="13" font-weight="bold" lengthAdjust="spacingAndGlyphs" textLength="37">seedT</text><text x="775" y="489.077" fill="#000" font-family="sans-serif" font-size="13" lengthAdjust="spacingAndGlyphs" textLength="4">)</text><line style="stroke:#a80036;stroke-width:1" x1="458" x2="500" y1="537.2" y2="537.2"/><line style="stroke:#a80036;stroke-width:1" x1="500" x2="500" y1="537.2" y2="550.2"/><line style="stroke:#a80036;stroke-width:1" x1="459" x2="500" y1="550.2" y2="550.2"/><polygon fill="#A80036" points="469 546.2 459 550.2 469 554.2 465 550.2" style="stroke:#a80036;stroke-width:1"/><text x="465" y="531.677" fill="#000" font-family="sans-serif" font-size="13" lengthAdjust="spacingAndGlyphs" textLength="42">Include</text><text x="511" y="531.677" fill="#000" font-family="sans-serif" font-size="13" font-weight="bold" lengthAdjust="spacingAndGlyphs" textLength="4">t</text><text x="519" y="531.677" fill="#000" font-family="sans-serif" font-size="13" lengthAdjust="spacingAndGlyphs" textLength="10">in</text><text x="533" y="531.677" fill="#000" font-family="sans-serif" font-size="13" font-weight="bold" lengthAdjust="spacingAndGlyphs" textLength="27">resp</text><text x="564" y="531.677" fill="#000" font-family="sans-serif" font-size="13" lengthAdjust="spacingAndGlyphs" textLength="14">as</text><text x="582" y="531.677" fill="#000" font-family="sans-serif" font-size="13" font-weight="bold" lengthAdjust="spacingAndGlyphs" textLength="35">resp.t</text><polygon fill="#A80036" points="305 575.8 295 579.8 305 583.8 301 579.8" style="stroke:#a80036;stroke-width:1"/><line style="stroke:#a80036;stroke-width:1" x1="299" x2="457" y1="579.8" y2="579.8"/><text x="311" y="574.277" fill="#000" font-family="sans-serif" font-size="13" lengthAdjust="spacingAndGlyphs" textLength="46">Return (</text><text x="357" y="574.277" fill="#000" font-family="sans-serif" font-size="13" font-weight="bold" lengthAdjust="spacingAndGlyphs" textLength="27">resp</text><text x="384" y="574.277" fill="#000" font-family="sans-serif" font-size="13" lengthAdjust="spacingAndGlyphs" textLength="4">)</text><line style="stroke:#a80036;stroke-width:1" x1="294" x2="336" y1="609.4" y2="609.4"/><line style="stroke:#a80036;stroke-width:1" x1="336" x2="336" y1="609.4" y2="622.4"/><line style="stroke:#a80036;stroke-width:1" x1="295" x2="336" y1="622.4" y2="622.4"/><polygon fill="#A80036" points="305 618.4 295 622.4 305 626.4 301 622.4" style="stroke:#a80036;stroke-width:1"/><text x="301" y="603.877" fill="#000" font-family="sans-serif" font-size="13" lengthAdjust="spacingAndGlyphs" textLength="25">enc(</text><text x="326" y="603.877" fill="#000" font-family="sans-serif" font-size="13" font-weight="bold" lengthAdjust="spacingAndGlyphs" textLength="27">resp</text><text x="353" y="603.877" fill="#000" font-family="sans-serif" font-size="13" lengthAdjust="spacingAndGlyphs" textLength="4">,</text><text x="361" y="603.877" fill="#000" font-family="sans-serif" font-size="13" font-weight="bold" lengthAdjust="spacingAndGlyphs" textLength="7">s</text><text x="368" y="603.877" fill="#000" font-family="sans-serif" font-size="13" lengthAdjust="spacingAndGlyphs" textLength="28">) -&gt; (</text><text x="396" y="603.877" fill="#000" font-family="sans-serif" font-size="13" font-weight="bold" lengthAdjust="spacingAndGlyphs" textLength="51">respEnc</text><text x="447" y="603.877" fill="#000" font-family="sans-serif" font-size="13" lengthAdjust="spacingAndGlyphs" textLength="4">)</text><polygon fill="#A80036" points="40 648 30 652 40 656 36 652" style="stroke:#a80036;stroke-width:1"/><line style="stroke:#a80036;stroke-width:1" x1="34" x2="293" y1="652" y2="652"/><text x="46" y="646.477" fill="#000" font-family="sans-serif" font-size="13" lengthAdjust="spacingAndGlyphs" textLength="46">Return (</text><text x="92" y="646.477" fill="#000" font-family="sans-serif" font-size="13" font-weight="bold" lengthAdjust="spacingAndGlyphs" textLength="51">respEnc</text><text x="143" y="646.477" fill="#000" font-family="sans-serif" font-size="13" lengthAdjust="spacingAndGlyphs" textLength="4">)</text><line style="stroke:#a80036;stroke-width:1" x1="29" x2="71" y1="681.6" y2="681.6"/><line style="stroke:#a80036;stroke-width:1" x1="71" x2="71" y1="681.6" y2="694.6"/><line style="stroke:#a80036;stroke-width:1" x1="30" x2="71" y1="694.6" y2="694.6"/><polygon fill="#A80036" points="40 690.6 30 694.6 40 698.6 36 694.6" style="stroke:#a80036;stroke-width:1"/><text x="36" y="676.077" fill="#000" font-family="sans-serif" font-size="13" lengthAdjust="spacingAndGlyphs" textLength="25">dec(</text><text x="61" y="676.077" fill="#000" font-family="sans-serif" font-size="13" font-weight="bold" lengthAdjust="spacingAndGlyphs" textLength="7">s</text><text x="68" y="676.077" fill="#000" font-family="sans-serif" font-size="13" lengthAdjust="spacingAndGlyphs" textLength="4">,</text><text x="76" y="676.077" fill="#000" font-family="sans-serif" font-size="13" font-weight="bold" lengthAdjust="spacingAndGlyphs" textLength="51">respEnc</text><text x="127" y="676.077" fill="#000" font-family="sans-serif" font-size="13" lengthAdjust="spacingAndGlyphs" textLength="20">) -&gt;</text><text x="151" y="676.077" fill="#000" font-family="sans-serif" font-size="13" font-weight="bold" lengthAdjust="spacingAndGlyphs" textLength="27">resp</text><line style="stroke:#a80036;stroke-width:1" x1="29" x2="71" y1="724.2" y2="724.2"/><line style="stroke:#a80036;stroke-width:1" x1="71" x2="71" y1="724.2" y2="737.2"/><line style="stroke:#a80036;stroke-width:1" x1="30" x2="71" y1="737.2" y2="737.2"/><polygon fill="#A80036" points="40 733.2 30 737.2 40 741.2 36 737.2" style="stroke:#a80036;stroke-width:1"/><text x="36" y="718.677" fill="#000" font-family="sans-serif" font-size="13" lengthAdjust="spacingAndGlyphs" textLength="31">Store</text><text x="71" y="718.677" fill="#000" font-family="sans-serif" font-size="13" font-weight="bold" lengthAdjust="spacingAndGlyphs" textLength="35">resp.t</text><text x="110" y="718.677" fill="#000" font-family="sans-serif" font-size="13" lengthAdjust="spacingAndGlyphs" textLength="14">as</text><text x="128" y="718.677" fill="#000" font-family="sans-serif" font-size="13" font-weight="bold" lengthAdjust="spacingAndGlyphs" textLength="4">t</text><line style="stroke:#a80036;stroke-width:1" x1="29" x2="71" y1="766.8" y2="766.8"/><line style="stroke:#a80036;stroke-width:1" x1="71" x2="71" y1="766.8" y2="779.8"/><line style="stroke:#a80036;stroke-width:1" x1="30" x2="71" y1="779.8" y2="779.8"/><polygon fill="#A80036" points="40 775.8 30 779.8 40 783.8 36 779.8" style="stroke:#a80036;stroke-width:1"/><text x="36" y="761.277" fill="#000" font-family="sans-serif" font-size="13" lengthAdjust="spacingAndGlyphs" textLength="182">All further API requests contain</text><text x="222" y="761.277" fill="#000" font-family="sans-serif" font-size="13" font-weight="bold" lengthAdjust="spacingAndGlyphs" textLength="4">t</text></g></svg>