<svg xmlns="http://www.w3.org/2000/svg" xmlns:xlink="http://www.w3.org/1999/xlink" width="930" height="630" contentScriptType="application/ecmascript" contentStyleType="text/css" style="width:930px;height:630px" preserveAspectRatio="none" version="1.1" viewBox="0 0 930 630" zoomAndPan="magnify"><g><rect style="stroke:#a80036;stroke-width:1.5" width="785" height="159" x="30" y="114" fill="#FEFECE" rx="12.5" ry="12.5"/><rect style="stroke:#fff;stroke-width:1" width="779" height="126.703" x="33" y="143.297" fill="#FFF" rx="12.5" ry="12.5"/><line style="stroke:#a80036;stroke-width:1.5" x1="30" x2="815" y1="140.297" y2="140.297"/><text x="384.5" y="130.995" fill="#000" font-family="sans-serif" font-size="14" lengthAdjust="spacingAndGlyphs" textLength="76">PR is Open</text><rect style="stroke:#a80036;stroke-width:1.5" width="209" height="91" x="250" y="442" fill="#FEFECE" rx="12.5" ry="12.5"/><rect style="stroke:#fff;stroke-width:1" width="203" height="58.703" x="253" y="471.297" fill="#FFF" rx="12.5" ry="12.5"/><line style="stroke:#a80036;stroke-width:1.5" x1="250" x2="459" y1="468.297" y2="468.297"/><text x="311.5" y="458.995" fill="#000" font-family="sans-serif" font-size="14" lengthAdjust="spacingAndGlyphs" textLength="86">PR is Closed</text><rect style="stroke:#a80036;stroke-width:1.5" width="435" height="129" x="483" y="423" fill="#FEFECE" rx="12.5" ry="12.5"/><rect style="stroke:#fff;stroke-width:1" width="429" height="96.703" x="486" y="452.297" fill="#FFF" rx="12.5" ry="12.5"/><line style="stroke:#a80036;stroke-width:1.5" x1="483" x2="918" y1="449.297" y2="449.297"/><text x="655" y="439.995" fill="#000" font-family="sans-serif" font-size="14" lengthAdjust="spacingAndGlyphs" textLength="91">PR is Merged</text><rect style="stroke:#a80036;stroke-width:1.5" width="192" height="92.172" x="73" y="157" fill="#FEFECE" rx="12.5" ry="12.5"/><line style="stroke:#a80036;stroke-width:1.5" x1="73" x2="265" y1="183.297" y2="183.297"/><text x="153.5" y="174.995" fill="#000" font-family="sans-serif" font-size="14" lengthAdjust="spacingAndGlyphs" textLength="31">draft</text><ellipse cx="83.5" cy="194.766" fill="#000" rx="2.5" ry="2.5" style="stroke:#000;stroke-width:0"/><text x="89" y="199.435" fill="#000" font-family="sans-serif" font-size="12" lengthAdjust="spacingAndGlyphs" textLength="84">tag sub-team</text><ellipse cx="83.5" cy="208.734" fill="#000" rx="2.5" ry="2.5" style="stroke:#000;stroke-width:0"/><text x="89" y="213.404" fill="#000" font-family="sans-serif" font-size="12" lengthAdjust="spacingAndGlyphs" textLength="105">assign shepherd</text><ellipse cx="83.5" cy="222.703" fill="#000" rx="2.5" ry="2.5" style="stroke:#000;stroke-width:0"/><text x="89" y="227.373" fill="#000" font-family="sans-serif" font-size="12" lengthAdjust="spacingAndGlyphs" textLength="161">feedback from community</text><ellipse cx="83.5" cy="236.672" fill="#000" rx="2.5" ry="2.5" style="stroke:#000;stroke-width:0"/><text x="89" y="241.342" fill="#000" font-family="sans-serif" font-size="12" lengthAdjust="spacingAndGlyphs" textLength="121">iterate on proposal</text><rect style="stroke:#a80036;stroke-width:1.5" width="310" height="78.203" x="481" y="164" fill="#FEFECE" rx="12.5" ry="12.5"/><line style="stroke:#a80036;stroke-width:1.5" x1="481" x2="791" y1="190.297" y2="190.297"/><text x="622.5" y="181.995" fill="#000" font-family="sans-serif" font-size="14" lengthAdjust="spacingAndGlyphs" textLength="27">FCP</text><ellipse cx="491.5" cy="201.766" fill="#000" rx="2.5" ry="2.5" style="stroke:#000;stroke-width:0"/><text x="497" y="206.435" fill="#000" font-family="sans-serif" font-size="12" lengthAdjust="spacingAndGlyphs" textLength="279">include disposition to merge/close/postpone</text><ellipse cx="491.5" cy="215.734" fill="#000" rx="2.5" ry="2.5" style="stroke:#000;stroke-width:0"/><text x="497" y="220.404" fill="#000" font-family="sans-serif" font-size="12" lengthAdjust="spacingAndGlyphs" textLength="191">final feedback from community</text><ellipse cx="491.5" cy="229.703" fill="#000" rx="2.5" ry="2.5" style="stroke:#000;stroke-width:0"/><text x="497" y="234.373" fill="#000" font-family="sans-serif" font-size="12" lengthAdjust="spacingAndGlyphs" textLength="160">final touches on proposal</text><rect style="stroke:#a80036;stroke-width:1.5" width="56" height="40" x="387" y="477" fill="#FEFECE" rx="12.5" ry="12.5"/><text x="392" y="501.847" fill="#000" font-family="sans-serif" font-size="14" lengthAdjust="spacingAndGlyphs" textLength="46">closed</text><rect style="stroke:#a80036;stroke-width:1.5" width="86" height="40" x="266" y="477" fill="#FEFECE" rx="12.5" ry="12.5"/><text x="271" y="501.847" fill="#000" font-family="sans-serif" font-size="14" lengthAdjust="spacingAndGlyphs" textLength="76">postponed</text><rect style="stroke:#a80036;stroke-width:1.5" width="274" height="78.203" x="499" y="458" fill="#FEFECE" rx="12.5" ry="12.5"/><line style="stroke:#a80036;stroke-width:1.5" x1="499" x2="773" y1="484.297" y2="484.297"/><text x="616" y="475.995" fill="#000" font-family="sans-serif" font-size="14" lengthAdjust="spacingAndGlyphs" textLength="40">active</text><ellipse cx="509.5" cy="495.766" fill="#000" rx="2.5" ry="2.5" style="stroke:#000;stroke-width:0"/><text x="515" y="500.435" fill="#000" font-family="sans-serif" font-size="12" lengthAdjust="spacingAndGlyphs" textLength="120">assign RFC number</text><ellipse cx="509.5" cy="509.734" fill="#000" rx="2.5" ry="2.5" style="stroke:#000;stroke-width:0"/><text x="515" y="514.404" fill="#000" font-family="sans-serif" font-size="12" lengthAdjust="spacingAndGlyphs" textLength="236">create tracking issue in relevant repo</text><ellipse cx="509.5" cy="523.703" fill="#000" rx="2.5" ry="2.5" style="stroke:#000;stroke-width:0"/><text x="515" y="528.373" fill="#000" font-family="sans-serif" font-size="12" lengthAdjust="spacingAndGlyphs" textLength="243">make note if superseded by a new RFC</text><ellipse cx="38" cy="18" fill="#000" rx="10" ry="10" style="stroke:none;stroke-width:1"/><rect style="stroke:none;stroke-width:1" width="80" height="8" x="399" y="340" fill="#000"/><rect style="stroke:none;stroke-width:1" width="80" height="8" x="279" y="340" fill="#000"/><ellipse cx="415" cy="609" fill="none" rx="10" ry="10" style="stroke:#000;stroke-width:1"/><ellipse cx="415.5" cy="609.5" fill="#000" rx="6" ry="6" style="stroke:none;stroke-width:1"/><path id="*start-long1" fill="none" d="M38,28.075 C38,37.1623 38,52.3101 38,69.9853 C38,78.8229 38,88.2924 38,97.952 C38,102.7818 38,107.6591 38,112.5288 C38,112.8331 38,113.1375 38,113.4418" style="stroke:#a80036;stroke-width:1"/><polygon fill="#A80036" points="38 113.442 42 104.442 38 108.442 34 104.442 38 113.442" style="stroke:#a80036;stroke-width:1"/><text x="90.5" y="71.067" fill="#000" font-family="sans-serif" font-size="13" lengthAdjust="spacingAndGlyphs" textLength="52">[author]</text><text x="39" y="86.2" fill="#000" font-family="sans-serif" font-size="13" lengthAdjust="spacingAndGlyphs" textLength="155">Submit a PR to /grin-rfcs</text><path id="draft-FCP" fill="none" d="M265.196,203 C325.821,203 405.597,203 475.617,203" style="stroke:#a80036;stroke-width:1"/><polygon fill="#A80036" points="480.641 203 471.641 199 475.641 203 471.641 207 480.641 203" style="stroke:#a80036;stroke-width:1"/><text x="338" y="181.067" fill="#000" font-family="sans-serif" font-size="13" lengthAdjust="spacingAndGlyphs" textLength="70">[shepherd]</text><text x="283.5" y="196.2" fill="#000" font-family="sans-serif" font-size="13" lengthAdjust="spacingAndGlyphs" textLength="179">Enter Final Comment Period</text><path id="draft-FCP-1" fill="none" d="M269.941,227.588 C291.76,231.92 314.797,235.757 336.5,238 C383.366,242.844 434.296,239.956 480.641,234.174" style="stroke:#a80036;stroke-width:1"/><polygon fill="#A80036" points="265.012 226.597 273.047 232.292 269.914 227.583 274.624 224.449 265.012 226.597" style="stroke:#a80036;stroke-width:1"/><text x="338" y="219.067" fill="#000" font-family="sans-serif" font-size="13" lengthAdjust="spacingAndGlyphs" textLength="70">[shepherd]</text><text x="337.5" y="234.2" fill="#000" font-family="sans-serif" font-size="13" lengthAdjust="spacingAndGlyphs" textLength="71">Cancel FCP</text><path id="draft-close_join" fill="none" d="M256.661,249.129 C320.153,281.816 399.64,322.737 428.18,337.43" style="stroke:#a80036;stroke-width:1"/><polygon fill="#A80036" points="432.901 339.86 426.73 332.184 428.455 337.572 423.068 339.297 432.901 339.86" style="stroke:#a80036;stroke-width:1"/><path id="FCP-close_join" fill="none" d="M581.908,242.166 C535.118,275.181 471.418,320.126 448.061,336.607" style="stroke:#a80036;stroke-width:1"/><polygon fill="#A80036" points="443.71 339.677 453.37 337.759 447.796 336.795 448.76 331.221 443.71 339.677" style="stroke:#a80036;stroke-width:1"/><path id="draft-post_join" fill="none" d="M217.701,249.129 C252.084,280.992 294.912,320.678 311.736,336.269" style="stroke:#a80036;stroke-width:1"/><polygon fill="#A80036" points="315.432 339.694 311.55 330.642 311.765 336.295 306.112 336.51 315.432 339.694" style="stroke:#a80036;stroke-width:1"/><path id="FCP-post_join" fill="none" d="M548.959,242.166 C471.742,276.025 365.908,322.432 330.827,337.814" style="stroke:#a80036;stroke-width:1"/><polygon fill="#A80036" points="326.177 339.853 336.026 339.902 330.756 337.845 332.813 332.575 326.177 339.853" style="stroke:#a80036;stroke-width:1"/><path id="close_join-closed" fill="none" d="M438.499,348.154 C436.016,363.776 424.914,433.623 418.901,471.457" style="stroke:#a80036;stroke-width:1"/><polygon fill="#A80036" points="418.052 476.797 423.414 468.536 418.836 471.859 415.514 467.281 418.052 476.797" style="stroke:#a80036;stroke-width:1"/><text x="433" y="403.067" fill="#000" font-family="sans-serif" font-size="13" lengthAdjust="spacingAndGlyphs" textLength="63">Close RFC</text><path id="post_join-postponed" fill="none" d="M317.733,348.206 C314.932,355.489 308.279,373.897 306,390 C302.075,417.727 303.874,449.928 305.98,471.496" style="stroke:#a80036;stroke-width:1"/><polygon fill="#A80036" points="306.518 476.742 309.576 467.38 306.007 471.768 301.618 468.198 306.518 476.742" style="stroke:#a80036;stroke-width:1"/><text x="307" y="403.067" fill="#000" font-family="sans-serif" font-size="13" lengthAdjust="spacingAndGlyphs" textLength="88">Postpone RFC</text><path id="FCP-active" fill="none" d="M636,242.174 C636,296.496 636,395.814 636,452.777" style="stroke:#a80036;stroke-width:1"/><polygon fill="#A80036" points="636 457.817 640 448.817 636 452.817 632 448.817 636 457.817" style="stroke:#a80036;stroke-width:1"/><text x="637" y="341.067" fill="#000" font-family="sans-serif" font-size="13" lengthAdjust="spacingAndGlyphs" textLength="70">[shepherd]</text><text x="638" y="356.2" fill="#000" font-family="sans-serif" font-size="13" lengthAdjust="spacingAndGlyphs" textLength="68">Merge RFC</text><path id="active-active" fill="none" d="M773.304,485.062 C793.985,486.903 808,490.882 808,497 C808,502.592 796.29,506.398 778.483,508.416" style="stroke:#a80036;stroke-width:1"/><polygon fill="#A80036" points="773.304 508.938 782.66 512.015 778.279 508.437 781.857 504.055 773.304 508.938" style="stroke:#a80036;stroke-width:1"/><text x="817" y="494.067" fill="#000" font-family="sans-serif" font-size="13" lengthAdjust="spacingAndGlyphs" textLength="93">Minor changes</text><text x="814" y="509.2" fill="#000" font-family="sans-serif" font-size="13" lengthAdjust="spacingAndGlyphs" textLength="99">through new PR</text><path id="postponed-draft" fill="none" d="M284.186,476.984 C255.13,453.147 208.162,409.374 186,360 C171.183,326.989 167.165,286.241 166.728,254.669" style="stroke:#a80036;stroke-width:1"/><polygon fill="#A80036" points="166.687 249.285 162.756 258.316 166.726 254.285 170.756 258.254 166.687 249.285" style="stroke:#a80036;stroke-width:1"/><text x="187" y="348.567" fill="#000" font-family="sans-serif" font-size="13" lengthAdjust="spacingAndGlyphs" textLength="73">Re-open PR</text><path id="postponed-*end" fill="none" d="M327.464,517.161 C349.742,540.2799 386.442,578.3639 404.415,597.0155" style="stroke:#a80036;stroke-width:1"/><polygon fill="#A80036" points="408.157 600.899 404.792 591.643 404.687 597.299 399.031 597.194 408.157 600.899" style="stroke:#a80036;stroke-width:1"/><path id="closed-*end" fill="none" d="M415,517.161 C415,538.9911 415,574.1644 415,593.7211" style="stroke:#a80036;stroke-width:1"/><polygon fill="#A80036" points="415 598.799 419 589.799 415 593.799 411 589.799 415 598.799" style="stroke:#a80036;stroke-width:1"/><path id="active-*end" fill="none" d="M559.635,536.0098 C511.679,559.8793 454.211,588.4832 428.541,601.2601" style="stroke:#a80036;stroke-width:1"/><polygon fill="#A80036" points="423.843 603.598 433.683 603.17 428.32 601.371 430.119 596.008 423.843 603.598" style="stroke:#a80036;stroke-width:1"/></g></svg>